<svg width="140" height="91" viewBox="0 0 140 91" fill="none" xmlns="http://www.w3.org/2000/svg">
<g clip-path="url(#clip0_9_4594)">
<path d="M89.9883 35.2381L95.9767 53.4961C96.4013 54.7954 98.0058 55.258 99.0623 54.3869L116.944 39.6722C116.944 39.6722 97.9416 32.2804 97.9416 32.6839C97.9416 33.0875 89.9883 35.2381 89.9883 35.2381Z" fill="#9B9FD0"/>
<path d="M137.178 0.145719C125.497 4.75207 87.804 20.1509 73.5364 25.9826C71.6505 26.7553 71.764 29.4472 73.7042 30.0624L89.9959 35.2347L95.9646 53.4337C96.2065 54.167 96.8088 54.6394 97.4852 54.7624C98.0332 54.8658 98.8428 40.0231 98.8428 40.0231C98.8428 40.0231 115.969 52.6857 124.09 58.6601C126.089 60.1316 128.948 59.0243 129.422 56.5932C131.841 44.1619 137.894 13.0789 139.962 2.44889C140.273 0.849466 138.693 -0.459603 137.178 0.140797V0.145719Z" fill="#E4E5F7"/>
<path d="M97.4825 54.7692C98.0305 54.8725 98.8401 40.0298 98.8401 40.0298L126.975 13.686C127.168 13.5089 126.936 13.2087 126.714 13.3416L89.9883 35.2365L95.957 53.4355C96.1989 54.1688 96.8012 54.6412 97.4775 54.7642L97.4825 54.7692Z" fill="#CBCEEF"/>
<path d="M0 90.506C19.3229 90.4469 45.0095 79.5856 50.1686 58.729C52.247 50.3136 50.4006 41.2928 43.7062 35.151C35.2493 27.3901 25.963 34.4817 28.2488 45.3185C32.0008 63.1188 53.812 76.2981 70.3851 76.4851C79.9626 76.5934 88.9527 72.0117 92.3986 62.6562" stroke="#E4E5F7" stroke-width="2" stroke-miterlimit="10" stroke-dasharray="4 4"/>
</g>
<defs>
<clipPath id="clip0_9_4594">
<rect width="140" height="91" fill="white"/>
</clipPath>
</defs>
</svg>
