<svg width="30" height="35" viewBox="0 0 30 35" fill="none" xmlns="http://www.w3.org/2000/svg">
<path d="M0 16.2113C0 11.9724 0 7.73346 0 3.49347C0 1.3578 1.36181 0.00758009 3.51285 0.00758009C8.10338 0.00758009 12.6939 0.0119077 17.2845 6.75674e-06C17.7166 -0.00107515 18.0203 0.127671 18.3023 0.457652C20.7755 3.34634 23.2597 6.22528 25.7503 9.09882C25.9887 9.37362 26.0878 9.65384 26.0867 10.0141C26.078 13.7272 26.0845 17.4392 26.0747 21.1523C26.0747 21.4304 26.1618 21.5753 26.4046 21.7149C29.0455 23.2231 30.4563 26.2838 29.8674 29.1919C29.2403 32.2905 26.8324 34.5593 23.7147 34.939C21.2828 35.2355 19.2243 34.4457 17.5435 32.6897C17.3454 32.482 17.1571 32.4095 16.8795 32.4095C12.425 32.4171 7.97058 32.416 3.51611 32.4149C1.3629 32.4138 0 31.0636 0 28.929C0 24.6901 0 20.4502 0 16.2113ZM16.9524 1.3037H16.4615C12.1562 1.3037 7.85083 1.3037 3.5455 1.3037C2.06939 1.3037 1.30412 2.05779 1.30412 3.51403C1.30412 11.9788 1.30412 20.4437 1.30412 28.9096C1.30412 30.3463 2.07374 31.1188 3.5074 31.1188C7.64945 31.1188 11.7915 31.1188 15.9346 31.1188C16.0772 31.1188 16.2198 31.1188 16.3842 31.1188C13.6355 25.5091 18.7834 19.3964 24.7456 20.977V10.3776C23.5754 10.3776 22.4345 10.3798 21.2948 10.3765C20.793 10.3744 20.2835 10.4101 19.7904 10.3419C18.0998 10.1061 16.9612 8.77749 16.9546 7.06809C16.947 5.1661 16.9524 3.26411 16.9524 1.3037ZM24.0075 9.07718C22.072 6.83331 20.1997 4.66301 18.2609 2.41482C18.2609 4.12206 18.2326 5.71354 18.2718 7.30286C18.2947 8.24736 19.1231 9.04364 20.0778 9.06853C21.3514 9.10207 22.6272 9.07718 24.0075 9.07718Z" fill="#CBCEEF"/>
<path d="M13 13.0033C15.3502 13.0033 17.6993 13.0033 20.0494 13.0033C20.1743 13.0033 20.3024 12.9942 20.4239 13.0108C20.7827 13.0607 21 13.2261 21 13.5004C21 13.7756 20.7816 13.9401 20.4228 13.99C20.3013 14.0066 20.1731 13.9975 20.0483 13.9975C15.3491 13.9975 10.6498 13.9975 5.95055 13.9975C5.82574 13.9975 5.69759 14.0066 5.57612 13.99C5.2173 13.9393 5 13.7756 5 13.4996C5 13.2244 5.21841 13.0599 5.57724 13.01C5.6987 12.9934 5.82686 13.0025 5.95166 13.0025C8.30185 13.0025 10.6509 13.0025 13.0011 13.0025L13 13.0033Z" fill="#CBCEEF"/>
<path d="M13.0084 17.0026C15.3584 17.0026 17.7073 17.0026 20.0573 17.0026C20.1821 17.0026 20.3114 16.9935 20.4317 17.0109C20.7905 17.0642 21.0022 17.2313 21 17.5065C20.9978 17.7676 20.7905 17.9289 20.4551 17.9863C20.3359 18.0071 20.2066 17.9979 20.0807 17.9979C15.354 17.9979 10.6272 17.9979 5.90044 17.9979C5.78901 17.9979 5.67536 18.0062 5.56727 17.9896C5.2107 17.9347 4.99453 17.7693 5.00011 17.4932C5.00568 17.218 5.2263 17.0558 5.5851 17.0093C5.70656 16.9935 5.8347 17.0026 5.9595 17.0026C8.3095 17.0026 10.6584 17.0026 13.0084 17.0026Z" fill="#CBCEEF"/>
<path d="M9.00557 9.00158C10.0615 9.00158 11.1175 8.99991 12.1735 9.00158C12.697 9.00241 13.0033 9.19251 13 9.5035C12.9966 9.81365 12.6914 9.99875 12.1634 9.99875C10.0515 10.0004 7.93958 10.0004 5.82653 9.99875C5.303 9.99875 4.99669 9.80782 5.00003 9.49599C5.00337 9.185 5.30746 9.00157 5.83544 9.00074C6.89141 8.99907 7.94738 9.00074 9.00334 9.00074L9.00557 9.00158Z" fill="#CBCEEF"/>
<path d="M23.7844 26.8724C23.7844 28.0799 23.7844 29.2887 23.7844 30.4962C23.7844 30.679 23.787 30.8618 23.7844 31.0459C23.7739 31.6357 23.4805 31.9946 23.009 31.9999C22.5349 32.0053 22.2218 31.645 22.2192 31.062C22.2127 29.9972 22.2179 28.9311 22.2179 27.8664C22.2179 27.5382 22.2179 27.2086 22.2179 26.8804C22.1773 26.8497 22.138 26.819 22.0974 26.7883C21.8643 27.0512 21.6442 27.3287 21.3941 27.5742C21.0064 27.9545 20.5401 27.9611 20.2206 27.6196C19.9128 27.2913 19.9219 26.835 20.2808 26.4601C20.9723 25.7316 21.677 25.0137 22.3895 24.3053C22.7929 23.9036 23.1963 23.897 23.5971 24.2932C24.3122 25.0004 25.0155 25.7196 25.711 26.4467C26.0856 26.839 26.0908 27.3167 25.7569 27.6436C25.436 27.9571 24.9907 27.9451 24.6187 27.5849C24.3711 27.3447 24.1511 27.0738 23.9193 26.8163C23.8734 26.835 23.8289 26.8537 23.7831 26.8724H23.7844Z" fill="white"/>
</svg>
