<svg width="14" height="10" viewBox="0 0 14 10" fill="none" xmlns="http://www.w3.org/2000/svg">
<path d="M1.05005 0.1875C0.844727 0.1875 0.653675 0.24409 0.492177 0.343237L6.48587 5.46726C6.80387 5.73893 7.18446 5.73893 7.50308 5.46726L13.5077 0.343237C13.3463 0.244087 13.1552 0.1875 12.9498 0.1875H1.05005ZM0.0601808 0.885742C0.023803 0.990528 0 1.10142 0 1.21869V8.78119C0 9.35246 0.468246 9.8125 1.05005 9.8125H12.9499C13.5316 9.8125 14 9.35261 14 8.78119V1.21869C14 1.10144 13.9762 0.990537 13.9398 0.88562L7.96237 5.98294C7.40513 6.45818 6.5836 6.45904 6.02648 5.98294L0.0601808 0.885742Z" fill="#7377A5"/>
</svg>
