<svg width="10" height="14" viewBox="0 0 10 14" fill="none" xmlns="http://www.w3.org/2000/svg">
<path d="M0.794759 8.04498L0.819755 8.08247C0.850999 8.12823 0.882244 8.17196 0.913487 8.21788L4.53229 13.4251C4.63779 13.5768 4.81102 13.6673 4.99587 13.6673C5.18072 13.6673 5.3538 13.5768 5.45945 13.4251L9.07405 8.22606C9.10733 8.17811 9.14279 8.13031 9.17607 8.08019L9.19903 8.04691C9.85283 7.03582 10.1196 5.82264 9.95034 4.63052C9.78118 3.43824 9.18724 2.34725 8.27767 1.55791C7.36826 0.768678 6.20438 0.333984 5.00005 0.333984C3.79562 0.333984 2.63174 0.768715 1.72232 1.55791C0.812756 2.34729 0.218818 3.43828 0.049658 4.63052C-0.119643 5.82264 0.147169 7.03582 0.800963 8.04691L0.794759 8.04498ZM4.99679 3.25432C5.54932 3.25432 6.07931 3.47385 6.46994 3.86438C6.86071 4.25508 7.08013 4.7848 7.08013 5.33721C7.08013 5.88963 6.8607 6.4195 6.46994 6.81005C6.07931 7.20074 5.54932 7.42011 4.99679 7.42011C4.44426 7.42011 3.91427 7.20072 3.52364 6.81005C3.13287 6.4195 2.91345 5.88963 2.91345 5.33721C2.91345 4.7848 3.13288 4.25508 3.52364 3.86438C3.91427 3.47384 4.44426 3.25432 4.99679 3.25432Z" fill="#7377A5"/>
</svg>
