<svg width="60" height="60" viewBox="0 0 60 60" fill="none" xmlns="http://www.w3.org/2000/svg">
<path d="M2.9862 24.9999C2.9862 12.8929 12.8053 3.04047 24.8999 2.98145V2.9862H24.9999C37.1403 2.9862 47.0136 12.8645 47.0136 24.9999C47.0136 37.1353 37.1353 47.0136 24.9999 47.0136C12.8645 47.0136 2.9862 37.1403 2.9862 24.9999ZM2.07383 24.9999C2.07383 37.6421 12.3577 47.926 24.9999 47.926C37.6421 47.926 47.926 37.6421 47.926 24.9999C47.926 12.3577 37.6421 2.07383 24.9999 2.07383C12.3577 2.07383 2.07383 12.3577 2.07383 24.9999Z" fill="url(#paint0_linear_346_5381)" stroke="url(#paint1_linear_346_5381)" stroke-width="0.2"/>
<path d="M18.4761 18.2392C18.5221 18.2647 18.5629 18.2901 18.6037 18.3155C18.9815 18.5292 19.3337 18.7835 19.6349 19.0989C20.0484 19.5363 20.2934 20.0501 20.3853 20.6452C20.5333 21.5914 20.4414 22.5171 20.1913 23.4378C19.8901 24.5569 19.446 25.6149 18.9049 26.6374C18.2821 27.8175 17.6696 28.9976 17.0928 30.198C16.7507 30.9153 16.4496 31.6477 16.2403 32.4209C16.1688 32.6854 16.128 32.9499 16.1586 33.2297C16.2199 33.8299 16.761 34.1911 17.1795 34.2114C17.3633 34.2216 17.5369 34.1707 17.7002 34.0944C17.8585 34.0181 18.0014 33.9164 18.1392 33.8045C18.5833 33.4383 18.9662 33.0161 19.3235 32.5684C19.8799 31.8716 20.3751 31.134 20.86 30.3913C21.4215 29.5266 21.9626 28.6517 22.519 27.7819C22.958 27.1002 23.4021 26.4237 23.8462 25.7472C23.882 25.6963 23.9126 25.6404 23.9432 25.5844C24.2852 24.8824 24.7447 24.267 25.2858 23.7023C26.128 22.8274 27.103 22.1509 28.2414 21.7185C28.6702 21.5558 29.1143 21.4235 29.5686 21.3625C30.1761 21.2811 30.7682 21.3269 31.3603 21.4896C31.391 21.4998 31.4267 21.5049 31.4675 21.5201C31.6258 21.2404 31.7789 20.9606 31.9372 20.6808C32.2894 20.7012 32.6212 20.7571 32.9275 20.925C33.3307 21.1488 33.5553 21.4998 33.6421 21.9423C33.7034 22.2374 33.6523 22.5273 33.586 22.8173C33.3818 23.7176 33.1163 24.5976 32.8458 25.4776C32.3966 26.9171 31.9474 28.3567 31.4982 29.8013C31.2736 30.5236 31.0796 31.2561 30.9366 31.9987C30.855 32.4107 30.7937 32.8279 30.8141 33.2551C30.8141 33.3569 30.8346 33.4637 30.8601 33.5654C30.9571 33.9317 31.3399 34.0029 31.5798 33.835C31.6768 33.7689 31.7738 33.6926 31.8504 33.601C32.0801 33.3314 32.2996 33.0517 32.5191 32.7719C32.8509 32.3344 33.1827 31.897 33.5043 31.4494C33.8208 31.0068 34.122 30.549 34.4231 30.0963C35.0408 29.1756 35.6789 28.2702 36.3833 27.4105C37.0163 26.6323 37.6952 25.8998 38.4661 25.2538C39.0582 24.7553 39.6912 24.3229 40.4109 24.0177C40.6815 23.9058 40.9571 23.8142 41.243 23.743C41.2583 23.743 41.2787 23.7379 41.3043 23.743C41.2838 23.7583 41.2583 23.7685 41.2379 23.7837C39.9872 24.3534 38.8948 25.1419 37.9147 26.1033C36.9398 27.0596 36.1179 28.1379 35.3726 29.2824C34.8417 30.1014 34.3619 30.9458 33.8718 31.7902C33.6064 32.248 33.3307 32.7007 33.0449 33.1483C32.7692 33.5807 32.4323 33.9571 32.029 34.2725C31.9729 34.3183 31.9167 34.3589 31.8555 34.3946C31.4165 34.6896 30.9418 34.715 30.4466 34.5777C30.2475 34.5217 30.0791 34.4098 29.9412 34.2572C29.6809 33.9825 29.5175 33.6519 29.4052 33.2958C29.3032 32.9652 29.247 32.6295 29.2062 32.2887C29.1347 31.7037 29.1398 31.1187 29.1653 30.5338C29.1908 29.8979 29.2572 29.2621 29.3542 28.6313C29.4971 27.7157 29.6707 26.8001 29.9004 25.9049C29.9463 25.7268 29.9974 25.5539 30.0433 25.3759C30.0484 25.3555 30.0535 25.3352 30.0433 25.3046C30.0229 25.3352 30.0025 25.3657 29.9821 25.3962C29.5635 26.0575 29.15 26.7187 28.7314 27.3749C28.3333 27.9955 27.8892 28.5805 27.3889 29.1247C27.0724 29.4656 26.7304 29.7758 26.3322 30.02C26.1638 30.1217 25.9851 30.2133 25.786 30.254C25.541 30.3049 25.3062 30.2794 25.0867 30.1624C24.6528 29.9234 24.2699 29.6232 23.9739 29.2214C23.7084 28.8653 23.5604 28.4635 23.4991 28.026C23.4685 27.8073 23.4634 27.5835 23.443 27.3444C23.4175 27.38 23.397 27.4105 23.3766 27.4411C23.004 28.0464 22.6262 28.6466 22.2587 29.2519C21.5798 30.371 20.8804 31.4799 20.0994 32.5328C19.6808 33.0974 19.2214 33.6214 18.6803 34.069C18.4812 34.2369 18.2719 34.3946 18.0422 34.5217C17.5011 34.8167 16.9447 34.8625 16.3628 34.654C16.031 34.5319 15.7247 34.3589 15.4593 34.125C15.0203 33.7435 14.7905 33.2602 14.714 32.6905C14.6068 31.8563 14.714 31.0373 14.9284 30.2336C15.2347 29.0942 15.6634 28.0057 16.1586 26.9375C16.7099 25.7523 17.2459 24.5569 17.7308 23.3412C18.0116 22.629 18.2464 21.9017 18.4047 21.1539C18.4761 20.8029 18.517 20.4519 18.4353 20.101C18.3689 19.7907 18.2209 19.5262 17.9759 19.3024C17.9401 19.4092 17.9146 19.516 17.8789 19.6126C17.7308 19.9941 17.5522 20.3604 17.3276 20.7012C17.0468 21.1336 16.7405 21.5507 16.4036 21.9373C16.0565 22.3391 15.6583 22.6799 15.2295 22.9902C14.3362 23.6413 13.3714 24.1652 12.3352 24.5416C11.2581 24.9333 10.1555 25.2283 9.03247 25.4674C8.97121 25.4827 8.90485 25.4878 8.84359 25.4979C8.79765 25.503 8.7466 25.5081 8.69556 25.5081C8.72108 25.4979 8.7415 25.4878 8.76702 25.4827C9.01715 25.4013 9.26728 25.325 9.51231 25.2334C10.2627 24.9587 11.0233 24.7044 11.7533 24.384C12.3658 24.1144 12.9682 23.8295 13.5654 23.5192C14.5761 22.9851 15.4542 22.2882 16.2148 21.4438C16.4955 21.1336 16.7507 20.8029 16.9498 20.4316C17.1948 19.9738 17.348 19.4855 17.4603 18.9819C17.4756 18.9209 17.4501 18.8903 17.4041 18.8496C17.0774 18.5851 16.7507 18.3257 16.4343 18.051C16.1178 17.7763 15.8421 17.461 15.5971 17.1202C15.4388 16.8964 15.3163 16.6573 15.2142 16.4029C14.9998 15.8587 15.0254 15.3246 15.25 14.7905C15.4286 14.3683 15.7145 14.0275 16.0871 13.7579C16.5517 13.4272 17.0621 13.1882 17.6287 13.0915C18.0167 13.0254 18.4047 13.0203 18.7875 13.122C19.1244 13.2136 19.3643 13.412 19.4971 13.7375C19.5787 13.941 19.6298 14.1546 19.6451 14.3784C19.6706 14.8006 19.594 15.2127 19.4971 15.6196C19.2827 16.4996 18.9304 17.3287 18.5272 18.1426C18.5119 18.1731 18.4965 18.2087 18.4761 18.2494V18.2392ZM31.1715 22.0339C30.7631 21.9627 30.3751 21.978 29.9872 22.0644C29.4563 22.1814 28.9867 22.4307 28.5528 22.7511C27.5574 23.4887 26.7457 24.389 26.1076 25.4471C25.6278 26.2406 25.2551 27.0799 25.0765 27.9955C25.0152 28.3007 24.9897 28.6059 25.0407 28.9162C25.0765 29.1095 25.1479 29.2824 25.2807 29.4249C25.3521 29.5012 25.4338 29.552 25.541 29.5673C25.6635 29.5825 25.7707 29.5469 25.8728 29.4961C26.0311 29.4198 26.174 29.313 26.2965 29.1858C26.5568 28.9162 26.8223 28.6466 27.0673 28.3567C27.7003 27.614 28.2567 26.8103 28.7927 25.9964C29.6247 24.7349 30.3802 23.4327 31.1306 22.1255C31.1459 22.1 31.1561 22.0746 31.1766 22.039L31.1715 22.0339ZM17.9452 17.9493C17.9657 17.9188 17.981 17.8984 17.9963 17.8781C18.0729 17.7357 18.1494 17.5983 18.2209 17.4508C18.5935 16.6929 18.8896 15.9044 18.9815 15.055C19.0172 14.7192 19.0121 14.3835 18.9304 14.0529C18.859 13.768 18.6803 13.5951 18.3893 13.5391C18.1801 13.4984 17.9708 13.5137 17.7666 13.5544C17.2612 13.651 16.8222 13.8749 16.424 14.1902C16.128 14.4242 15.9085 14.7192 15.7655 15.0651C15.5971 15.467 15.6379 15.8536 15.8625 16.2198C15.9646 16.3877 16.1024 16.5352 16.2454 16.6674C16.7558 17.1354 17.3072 17.5373 17.8891 17.9086C17.9044 17.9188 17.9197 17.9289 17.9452 17.9391V17.9493Z" fill="url(#paint2_linear_346_5381)"/>
<defs>
<linearGradient id="paint0_linear_346_5381" x1="2.17383" y1="27.4087" x2="47.826" y2="27.4087" gradientUnits="userSpaceOnUse">
<stop offset="0.0001" stop-color="#464EA3"/>
<stop offset="1" stop-color="#995BB7"/>
</linearGradient>
<linearGradient id="paint1_linear_346_5381" x1="2.17383" y1="27.4087" x2="47.826" y2="27.4087" gradientUnits="userSpaceOnUse">
<stop offset="0.0001" stop-color="#464EA3"/>
<stop offset="1" stop-color="#995BB7"/>
</linearGradient>
<linearGradient id="paint2_linear_346_5381" x1="8.69556" y1="25.0601" x2="41.3043" y2="25.0601" gradientUnits="userSpaceOnUse">
<stop offset="0.0001" stop-color="#464EA3"/>
<stop offset="1" stop-color="#995BB7"/>
</linearGradient>
</defs>
</svg>
