<svg width="60" height="60" viewBox="0 0 60 60" fill="none" xmlns="http://www.w3.org/2000/svg">
<path d="M3.56422 30.0007C3.56422 15.4545 15.3669 3.61848 29.9007 3.55843V3.56422H30.0007C44.5802 3.56422 56.4371 15.4271 56.4371 30.0007C56.4371 44.5742 44.5742 56.4371 30.0007 56.4371C15.4271 56.4371 3.56422 44.5802 3.56422 30.0007ZM2.50937 30.0007C2.50937 45.1603 14.8411 57.492 30.0007 57.492C45.1603 57.492 57.492 45.1603 57.492 30.0007C57.492 14.8411 45.1603 2.50937 30.0007 2.50937C14.8411 2.50937 2.50937 14.8411 2.50937 30.0007Z" fill="url(#paint0_linear_347_3256)" stroke="url(#paint1_linear_347_3256)" stroke-width="0.2"/>
<path d="M22.1703 21.8873C22.2254 21.9178 22.2744 21.9483 22.3234 21.9788C22.7767 22.2352 23.1994 22.5404 23.5608 22.9189C24.057 23.4438 24.351 24.0603 24.4613 24.7745C24.6389 25.9098 24.5286 27.0208 24.2285 28.1256C23.8671 29.4685 23.3341 30.7381 22.6848 31.965C21.9375 33.3812 21.2024 34.7973 20.5102 36.2378C20.0998 37.0985 19.7384 37.9775 19.4873 38.9053C19.4015 39.2227 19.3525 39.5401 19.3892 39.8758C19.4628 40.5961 20.1121 41.0295 20.6144 41.0539C20.8349 41.0661 21.0432 41.0051 21.2392 40.9135C21.4291 40.822 21.6006 40.6999 21.766 40.5656C22.2989 40.1261 22.7583 39.6195 23.1871 39.0823C23.8548 38.2461 24.449 37.361 25.0309 36.4698C25.7048 35.4321 26.3541 34.3822 27.0218 33.3384C27.5486 32.5205 28.0815 31.7087 28.6144 30.8968C28.6573 30.8358 28.6941 30.7686 28.7308 30.7015C29.1412 29.8591 29.6925 29.1205 30.3418 28.443C31.3526 27.3931 32.5226 26.5813 33.8886 26.0624C34.4031 25.8671 34.9361 25.7084 35.4812 25.6351C36.2102 25.5375 36.9208 25.5924 37.6313 25.7878C37.6681 25.8 37.711 25.8061 37.76 25.8244C37.9499 25.4887 38.1336 25.1529 38.3235 24.8172C38.7462 24.8416 39.1444 24.9088 39.5119 25.1102C39.9958 25.3788 40.2653 25.8 40.3695 26.331C40.443 26.685 40.3817 27.033 40.3021 27.3809C40.0571 28.4613 39.7385 29.5173 39.4139 30.5733C38.8748 32.3007 38.3358 34.0282 37.7967 35.7617C37.5272 36.6285 37.2944 37.5075 37.1229 38.3987C37.0249 38.8931 36.9514 39.3936 36.9759 39.9064C36.9759 40.0284 37.0004 40.1566 37.031 40.2787C37.1474 40.7182 37.6068 40.8037 37.8947 40.6022C38.0111 40.5229 38.1275 40.4313 38.2194 40.3214C38.495 39.9979 38.7584 39.6622 39.0218 39.3265C39.42 38.8015 39.8182 38.2766 40.2041 37.7394C40.5839 37.2084 40.9453 36.659 41.3067 36.1158C42.0479 35.0109 42.8136 33.9244 43.6589 32.8928C44.4185 31.9589 45.2332 31.0799 46.1582 30.3047C46.8688 29.7065 47.6283 29.1877 48.492 28.8215C48.8167 28.6872 49.1475 28.5773 49.4905 28.4918C49.5089 28.4918 49.5334 28.4857 49.564 28.4918C49.5395 28.5101 49.5089 28.5224 49.4844 28.5407C47.9836 29.2243 46.6727 30.1704 45.4966 31.3241C44.3266 32.4717 43.3404 33.7657 42.4461 35.1391C41.809 36.1219 41.2332 37.1351 40.6451 38.1484C40.3266 38.6978 39.9958 39.241 39.6528 39.7782C39.322 40.297 38.9177 40.7487 38.4338 41.1272C38.3664 41.1821 38.299 41.2309 38.2255 41.2737C37.6987 41.6277 37.129 41.6582 36.5348 41.4934C36.2959 41.4263 36.0938 41.292 35.9284 41.1089C35.616 40.7792 35.42 40.3825 35.2852 39.9552C35.1627 39.5584 35.0953 39.1556 35.0463 38.7466C34.9606 38.0446 34.9667 37.3427 34.9973 36.6407C35.0279 35.8777 35.1076 35.1147 35.224 34.3578C35.3955 33.2591 35.6038 32.1604 35.8794 31.086C35.9345 30.8724 35.9958 30.6649 36.0509 30.4512C36.057 30.4268 36.0632 30.4024 36.0509 30.3658C36.0264 30.4024 36.0019 30.439 35.9774 30.4756C35.4751 31.2692 34.9789 32.0627 34.4766 32.8501C33.9988 33.5948 33.4659 34.2968 32.8656 34.9499C32.4858 35.3589 32.0754 35.7312 31.5976 36.0242C31.3955 36.1463 31.1811 36.2562 30.9422 36.305C30.6481 36.366 30.3663 36.3355 30.1029 36.1951C29.5823 35.9082 29.1228 35.5481 28.7676 35.0659C28.449 34.6386 28.2714 34.1564 28.1979 33.6314C28.1611 33.3689 28.155 33.1004 28.1305 32.8135C28.0999 32.8562 28.0754 32.8928 28.0509 32.9295C27.6037 33.6558 27.1504 34.3761 26.7094 35.1025C25.8946 36.4454 25.0554 37.7761 24.1182 39.0396C23.6159 39.7171 23.0646 40.3459 22.4153 40.883C22.1764 41.0844 21.9252 41.2737 21.6496 41.4263C21.0003 41.7803 20.3326 41.8352 19.6343 41.585C19.2361 41.4385 18.8686 41.2309 18.55 40.9501C18.0232 40.4923 17.7476 39.9125 17.6557 39.2288C17.5271 38.2278 17.6557 37.245 17.913 36.2806C18.2805 34.9133 18.7951 33.607 19.3892 32.3252C20.0508 30.9029 20.694 29.4685 21.2759 28.0096C21.6128 27.1551 21.8946 26.2822 22.0845 25.3849C22.1703 24.9637 22.2193 24.5425 22.1213 24.1214C22.0416 23.749 21.864 23.4316 21.57 23.163C21.5271 23.2912 21.4965 23.4194 21.4536 23.5354C21.2759 23.9932 21.0615 24.4327 20.792 24.8416C20.4551 25.3605 20.0876 25.861 19.6833 26.3249C19.2667 26.8071 18.7889 27.2161 18.2744 27.5884C17.2024 28.3698 16.0447 28.9985 14.8012 29.4502C13.5087 29.9202 12.1855 30.2742 10.8379 30.5611C10.7644 30.5794 10.6847 30.5855 10.6112 30.5977C10.5561 30.6038 10.4948 30.6099 10.4336 30.6099C10.4642 30.5977 10.4887 30.5855 10.5194 30.5794C10.8195 30.4817 11.1197 30.3902 11.4137 30.2803C12.3142 29.9507 13.2269 29.6455 14.1028 29.2609C14.8379 28.9374 15.5607 28.5956 16.2774 28.2233C17.4903 27.5823 18.5439 26.7461 19.4566 25.7328C19.7935 25.3605 20.0998 24.9637 20.3387 24.5181C20.6327 23.9688 20.8165 23.3828 20.9513 22.7785C20.9697 22.7052 20.939 22.6686 20.8839 22.6198C20.4919 22.3024 20.0998 21.991 19.72 21.6614C19.3402 21.3318 19.0095 20.9534 18.7154 20.5444C18.5255 20.2758 18.3785 19.9889 18.256 19.6837C17.9987 19.0306 18.0294 18.3897 18.2989 17.7487C18.5133 17.2421 18.8563 16.8331 19.3035 16.5096C19.8609 16.1129 20.4735 15.826 21.1534 15.71C21.619 15.6307 22.0845 15.6245 22.5439 15.7466C22.9482 15.8565 23.2361 16.0946 23.3954 16.4852C23.4934 16.7294 23.5547 16.9857 23.573 17.2543C23.6037 17.761 23.5118 18.2554 23.3954 18.7437C23.1381 19.7997 22.7155 20.7947 22.2315 21.7713C22.2132 21.8079 22.1948 21.8507 22.1703 21.8995V21.8873ZM37.4047 26.4409C36.9146 26.3554 36.4491 26.3737 35.9835 26.4775C35.3465 26.6179 34.7829 26.917 34.2622 27.3015C33.0677 28.1866 32.0938 29.267 31.3281 30.5367C30.7523 31.4889 30.3051 32.4961 30.0907 33.5948C30.0172 33.961 29.9866 34.3273 30.0478 34.6996C30.0907 34.9316 30.1765 35.1391 30.3357 35.31C30.4215 35.4016 30.5195 35.4626 30.6481 35.4809C30.7951 35.4993 30.9238 35.4565 31.0463 35.3955C31.2362 35.3039 31.4077 35.1757 31.5547 35.0231C31.8671 34.6996 32.1857 34.3761 32.4797 34.0282C33.2393 33.137 33.907 32.1726 34.5501 31.1959C35.5486 29.6821 36.4552 28.1195 37.3557 26.5508C37.3741 26.5202 37.3863 26.4897 37.4108 26.447L37.4047 26.4409ZM21.5332 21.5394C21.5577 21.5027 21.5761 21.4783 21.5945 21.4539C21.6864 21.283 21.7782 21.1182 21.864 20.9412C22.3112 20.0317 22.6664 19.0855 22.7767 18.0662C22.8196 17.6633 22.8135 17.2604 22.7155 16.8637C22.6297 16.5218 22.4153 16.3143 22.0661 16.2472C21.815 16.1983 21.5638 16.2166 21.3188 16.2655C20.7124 16.3814 20.1856 16.65 19.7078 17.0285C19.3525 17.3093 19.0891 17.6633 18.9176 18.0784C18.7154 18.5606 18.7644 19.0245 19.034 19.464C19.1565 19.6654 19.3219 19.8424 19.4934 20.0011C20.1059 20.5627 20.7675 21.0449 21.4658 21.4905C21.4842 21.5027 21.5026 21.5149 21.5332 21.5271V21.5394Z" fill="url(#paint2_linear_347_3256)"/>
<defs>
<linearGradient id="paint0_linear_347_3256" x1="2.60938" y1="32.8912" x2="57.392" y2="32.8912" gradientUnits="userSpaceOnUse">
<stop offset="0.0001" stop-color="#E54A81"/>
<stop offset="0.958352" stop-color="#AC5BB3"/>
</linearGradient>
<linearGradient id="paint1_linear_347_3256" x1="2.60938" y1="32.8912" x2="57.392" y2="32.8912" gradientUnits="userSpaceOnUse">
<stop offset="0.0001" stop-color="#E54A81"/>
<stop offset="0.958352" stop-color="#AC5BB3"/>
</linearGradient>
<linearGradient id="paint2_linear_347_3256" x1="10.4336" y1="30.0723" x2="49.564" y2="30.0723" gradientUnits="userSpaceOnUse">
<stop offset="0.0001" stop-color="#E54A81"/>
<stop offset="0.958352" stop-color="#AC5BB3"/>
</linearGradient>
</defs>
</svg>
