<svg width="50" height="50" viewBox="0 0 50 50" fill="none" xmlns="http://www.w3.org/2000/svg">
<path d="M2.98629 24.9999C2.98629 12.8929 12.8054 3.04047 24.9 2.98145V2.9862H25C37.1404 2.9862 47.0137 12.8645 47.0137 24.9999C47.0137 37.1353 37.1354 47.0136 25 47.0136C12.8646 47.0136 2.98629 37.1403 2.98629 24.9999ZM2.07391 24.9999C2.07391 37.6421 12.3578 47.926 25 47.926C37.6422 47.926 47.9261 37.6421 47.9261 24.9999C47.9261 12.3577 37.6422 2.07383 25 2.07383C12.3578 2.07383 2.07391 12.3577 2.07391 24.9999Z" fill="url(#paint0_linear_346_5646)" stroke="url(#paint1_linear_346_5646)" stroke-width="0.2"/>
<path d="M18.4762 18.2392C18.5222 18.2647 18.563 18.2901 18.6038 18.3155C18.9816 18.5292 19.3338 18.7835 19.635 19.0989C20.0485 19.5363 20.2935 20.0501 20.3854 20.6452C20.5334 21.5914 20.4415 22.5171 20.1914 23.4378C19.8902 24.5569 19.4461 25.6149 18.905 26.6374C18.2822 27.8175 17.6697 28.9976 17.0928 30.198C16.7508 30.9153 16.4497 31.6477 16.2404 32.4209C16.1689 32.6854 16.1281 32.9499 16.1587 33.2297C16.2199 33.8299 16.761 34.1911 17.1796 34.2114C17.3634 34.2216 17.537 34.1707 17.7003 34.0944C17.8585 34.0181 18.0015 33.9164 18.1393 33.8045C18.5834 33.4383 18.9663 33.0161 19.3236 32.5684C19.88 31.8716 20.3752 31.134 20.8601 30.3913C21.4216 29.5266 21.9627 28.6517 22.5191 27.7819C22.9581 27.1002 23.4022 26.4237 23.8463 25.7472C23.8821 25.6963 23.9127 25.6404 23.9433 25.5844C24.2853 24.8824 24.7448 24.267 25.2859 23.7023C26.1281 22.8274 27.1031 22.1509 28.2415 21.7185C28.6703 21.5558 29.1144 21.4235 29.5687 21.3625C30.1761 21.2811 30.7683 21.3269 31.3604 21.4896C31.3911 21.4998 31.4268 21.5049 31.4676 21.5201C31.6259 21.2404 31.779 20.9606 31.9373 20.6808C32.2895 20.7012 32.6213 20.7571 32.9276 20.925C33.3308 21.1488 33.5554 21.4998 33.6422 21.9423C33.7035 22.2374 33.6524 22.5273 33.5861 22.8173C33.3819 23.7176 33.1164 24.5976 32.8459 25.4776C32.3967 26.9171 31.9475 28.3567 31.4983 29.8013C31.2736 30.5236 31.0797 31.2561 30.9367 31.9987C30.8551 32.4107 30.7938 32.8279 30.8142 33.2551C30.8142 33.3569 30.8346 33.4637 30.8602 33.5654C30.9572 33.9317 31.34 34.0029 31.5799 33.835C31.6769 33.7689 31.7739 33.6926 31.8505 33.601C32.0802 33.3314 32.2997 33.0517 32.5192 32.7719C32.851 32.3344 33.1828 31.897 33.5044 31.4494C33.8209 31.0068 34.1221 30.549 34.4232 30.0963C35.0409 29.1756 35.679 28.2702 36.3834 27.4105C37.0164 26.6323 37.6953 25.8998 38.4661 25.2538C39.0583 24.7553 39.6913 24.3229 40.411 24.0177C40.6816 23.9058 40.9572 23.8142 41.2431 23.743C41.2584 23.743 41.2788 23.7379 41.3043 23.743C41.2839 23.7583 41.2584 23.7685 41.238 23.7837C39.9873 24.3534 38.8949 25.1419 37.9148 26.1033C36.9398 27.0596 36.118 28.1379 35.3727 29.2824C34.8418 30.1014 34.362 30.9458 33.8719 31.7902C33.6065 32.248 33.3308 32.7007 33.045 33.1483C32.7693 33.5807 32.4324 33.9571 32.0291 34.2725C31.973 34.3183 31.9168 34.3589 31.8556 34.3946C31.4166 34.6896 30.9418 34.715 30.4467 34.5777C30.2476 34.5217 30.0792 34.4098 29.9413 34.2572C29.681 33.9825 29.5176 33.6519 29.4053 33.2958C29.3032 32.9652 29.2471 32.6295 29.2063 32.2887C29.1348 31.7037 29.1399 31.1187 29.1654 30.5338C29.1909 29.8979 29.2573 29.2621 29.3543 28.6313C29.4972 27.7157 29.6708 26.8001 29.9005 25.9049C29.9464 25.7268 29.9975 25.5539 30.0434 25.3759C30.0485 25.3555 30.0536 25.3352 30.0434 25.3046C30.023 25.3352 30.0026 25.3657 29.9822 25.3962C29.5636 26.0575 29.1501 26.7187 28.7315 27.3749C28.3334 27.9955 27.8892 28.5805 27.389 29.1247C27.0725 29.4656 26.7305 29.7758 26.3323 30.02C26.1639 30.1217 25.9852 30.2133 25.7861 30.254C25.5411 30.3049 25.3063 30.2794 25.0868 30.1624C24.6529 29.9234 24.27 29.6232 23.974 29.2214C23.7085 28.8653 23.5605 28.4635 23.4992 28.026C23.4686 27.8073 23.4635 27.5835 23.4431 27.3444C23.4175 27.38 23.3971 27.4105 23.3767 27.4411C23.0041 28.0464 22.6263 28.6466 22.2588 29.2519C21.5799 30.371 20.8805 31.4799 20.0995 32.5328C19.6809 33.0974 19.2215 33.6214 18.6804 34.069C18.4813 34.2369 18.272 34.3946 18.0423 34.5217C17.5012 34.8167 16.9448 34.8625 16.3629 34.654C16.0311 34.5319 15.7248 34.3589 15.4593 34.125C15.0203 33.7435 14.7906 33.2602 14.7141 32.6905C14.6069 31.8563 14.7141 31.0373 14.9285 30.2336C15.2347 29.0942 15.6635 28.0057 16.1587 26.9375C16.71 25.7523 17.246 24.5569 17.7309 23.3412C18.0117 22.629 18.2465 21.9017 18.4047 21.1539C18.4762 20.8029 18.5171 20.4519 18.4354 20.101C18.369 19.7907 18.221 19.5262 17.976 19.3024C17.9402 19.4092 17.9147 19.516 17.879 19.6126C17.7309 19.9941 17.5523 20.3604 17.3277 20.7012C17.0469 21.1336 16.7406 21.5507 16.4037 21.9373C16.0566 22.3391 15.6584 22.6799 15.2296 22.9902C14.3363 23.6413 13.3715 24.1652 12.3353 24.5416C11.2582 24.9333 10.1556 25.2283 9.03256 25.4674C8.9713 25.4827 8.90494 25.4878 8.84368 25.4979C8.79774 25.503 8.74669 25.5081 8.69565 25.5081C8.72117 25.4979 8.74159 25.4878 8.76711 25.4827C9.01724 25.4013 9.26737 25.325 9.5124 25.2334C10.2628 24.9587 11.0234 24.7044 11.7534 24.384C12.3659 24.1144 12.9683 23.8295 13.5655 23.5192C14.5762 22.9851 15.4542 22.2882 16.2148 21.4438C16.4956 21.1336 16.7508 20.8029 16.9499 20.4316C17.1949 19.9738 17.3481 19.4855 17.4604 18.9819C17.4757 18.9209 17.4502 18.8903 17.4042 18.8496C17.0775 18.5851 16.7508 18.3257 16.4343 18.051C16.1179 17.7763 15.8422 17.461 15.5972 17.1202C15.4389 16.8964 15.3164 16.6573 15.2143 16.4029C14.9999 15.8587 15.0255 15.3246 15.2501 14.7905C15.4287 14.3683 15.7146 14.0275 16.0872 13.7579C16.5518 13.4272 17.0622 13.1882 17.6288 13.0915C18.0168 13.0254 18.4047 13.0203 18.7876 13.122C19.1245 13.2136 19.3644 13.412 19.4972 13.7375C19.5788 13.941 19.6299 14.1546 19.6452 14.3784C19.6707 14.8006 19.5941 15.2127 19.4972 15.6196C19.2828 16.4996 18.9305 17.3287 18.5273 18.1426C18.5119 18.1731 18.4966 18.2087 18.4762 18.2494V18.2392ZM31.1716 22.0339C30.7632 21.9627 30.3752 21.978 29.9873 22.0644C29.4564 22.1814 28.9868 22.4307 28.5529 22.7511C27.5574 23.4887 26.7458 24.389 26.1077 25.4471C25.6279 26.2406 25.2552 27.0799 25.0766 27.9955C25.0153 28.3007 24.9898 28.6059 25.0408 28.9162C25.0766 29.1095 25.148 29.2824 25.2808 29.4249C25.3522 29.5012 25.4339 29.552 25.5411 29.5673C25.6636 29.5825 25.7708 29.5469 25.8729 29.4961C26.0311 29.4198 26.1741 29.313 26.2966 29.1858C26.5569 28.9162 26.8224 28.6466 27.0674 28.3567C27.7004 27.614 28.2568 26.8103 28.7928 25.9964C29.6248 24.7349 30.3803 23.4327 31.1307 22.1255C31.146 22.1 31.1562 22.0746 31.1767 22.039L31.1716 22.0339ZM17.9453 17.9493C17.9657 17.9188 17.9811 17.8984 17.9964 17.8781C18.0729 17.7357 18.1495 17.5983 18.221 17.4508C18.5936 16.6929 18.8897 15.9044 18.9816 15.055C19.0173 14.7192 19.0122 14.3835 18.9305 14.0529C18.8591 13.768 18.6804 13.5951 18.3894 13.5391C18.1801 13.4984 17.9709 13.5137 17.7667 13.5544C17.2613 13.651 16.8223 13.8749 16.4241 14.1902C16.1281 14.4242 15.9086 14.7192 15.7656 15.0651C15.5972 15.467 15.638 15.8536 15.8626 16.2198C15.9647 16.3877 16.1025 16.5352 16.2455 16.6674C16.7559 17.1354 17.3072 17.5373 17.8892 17.9086C17.9045 17.9188 17.9198 17.9289 17.9453 17.9391V17.9493Z" fill="url(#paint2_linear_346_5646)"/>
<defs>
<linearGradient id="paint0_linear_346_5646" x1="2.17391" y1="27.4087" x2="47.8261" y2="27.4087" gradientUnits="userSpaceOnUse">
<stop offset="0.0001" stop-color="#E54A81"/>
<stop offset="0.958352" stop-color="#AC5BB3"/>
</linearGradient>
<linearGradient id="paint1_linear_346_5646" x1="2.17391" y1="27.4087" x2="47.8261" y2="27.4087" gradientUnits="userSpaceOnUse">
<stop offset="0.0001" stop-color="#E54A81"/>
<stop offset="0.958352" stop-color="#AC5BB3"/>
</linearGradient>
<linearGradient id="paint2_linear_346_5646" x1="8.69565" y1="25.0601" x2="41.3043" y2="25.0601" gradientUnits="userSpaceOnUse">
<stop offset="0.0001" stop-color="#E54A81"/>
<stop offset="0.958352" stop-color="#AC5BB3"/>
</linearGradient>
</defs>
</svg>
