<svg width="12" height="12" viewBox="0 0 12 12" fill="none" xmlns="http://www.w3.org/2000/svg">
<path d="M10.9075 8.09275C10.3642 8.03524 9.82578 7.92065 9.30647 7.75156C8.74116 7.56919 8.14746 7.79433 7.92477 8.27389C7.92399 8.27535 7.92332 8.27691 7.92276 8.27814L7.62034 8.96183C5.60651 8.00676 3.99255 6.39244 3.03735 4.37889L3.72529 4.07447C4.20506 3.85133 4.42955 3.2572 4.2474 2.6921C4.07899 2.17479 3.96418 1.63616 3.90644 1.09107C3.83965 0.479962 3.39259 0.0109186 2.86155 0.000426148H1.36961C1.03914 -0.00906651 0.72645 0.140247 0.477745 0.4267C0.0802866 0.884251 -0.0863363 1.61844 0.0432052 2.34221C0.910055 7.22592 4.77371 11.0898 9.65747 11.9567C9.81963 11.9857 9.98245 12 10.1425 12C10.6963 12 11.2177 11.8307 11.5729 11.5225C11.8596 11.2735 12.0109 10.9566 11.9994 10.6394V9.13342C11.9891 8.60708 11.5199 8.15931 10.9075 8.09275Z" fill="#7377A5"/>
</svg>
