<svg width="60" height="60" viewBox="0 0 60 60" fill="none" xmlns="http://www.w3.org/2000/svg">
<path d="M3.56422 30.0007C3.56422 15.4545 15.3669 3.61848 29.9007 3.55843V3.56422H30.0007C44.5802 3.56422 56.4371 15.4271 56.4371 30.0007C56.4371 44.5742 44.5742 56.4371 30.0007 56.4371C15.4271 56.4371 3.56422 44.5802 3.56422 30.0007ZM2.50937 30.0007C2.50937 45.1603 14.8411 57.492 30.0007 57.492C45.1603 57.492 57.492 45.1603 57.492 30.0007C57.492 14.8411 45.1603 2.50937 30.0007 2.50937C14.8411 2.50937 2.50937 14.8411 2.50937 30.0007Z" fill="url(#paint0_linear_347_1526)" stroke="url(#paint1_linear_347_1526)" stroke-width="0.2"/>
<path d="M22.1722 21.8873C22.2274 21.9178 22.2764 21.9483 22.3254 21.9788C22.7787 22.2352 23.2013 22.5404 23.5627 22.9189C24.0589 23.4438 24.3529 24.0603 24.4632 24.7745C24.6409 25.9098 24.5306 27.0208 24.2304 28.1256C23.869 29.4685 23.3361 30.7381 22.6868 31.965C21.9395 33.3812 21.2044 34.7973 20.5122 36.2378C20.1018 37.0985 19.7404 37.9775 19.4892 38.9053C19.4034 39.2227 19.3544 39.5401 19.3912 39.8758C19.4647 40.5961 20.114 41.0295 20.6163 41.0539C20.8368 41.0661 21.0451 41.0051 21.2411 40.9135C21.431 40.822 21.6025 40.6999 21.7679 40.5656C22.3009 40.1261 22.7603 39.6195 23.1891 39.0823C23.8568 38.2461 24.451 37.361 25.0329 36.4698C25.7067 35.4321 26.356 34.3822 27.0237 33.3384C27.5505 32.5205 28.0834 31.7087 28.6164 30.8968C28.6593 30.8358 28.696 30.7686 28.7328 30.7015C29.1432 29.8591 29.6945 29.1205 30.3438 28.443C31.3545 27.3931 32.5245 26.5813 33.8905 26.0624C34.4051 25.8671 34.938 25.7084 35.4832 25.6351C36.2121 25.5375 36.9227 25.5924 37.6333 25.7878C37.67 25.8 37.7129 25.8061 37.7619 25.8244C37.9518 25.4887 38.1356 25.1529 38.3255 24.8172C38.7481 24.8416 39.1463 24.9088 39.5138 25.1102C39.9978 25.3788 40.2673 25.8 40.3714 26.331C40.4449 26.685 40.3837 27.033 40.3041 27.3809C40.059 28.4613 39.7405 29.5173 39.4158 30.5733C38.8768 32.3007 38.3377 34.0282 37.7987 35.7617C37.5291 36.6285 37.2964 37.5075 37.1249 38.3987C37.0268 38.8931 36.9533 39.3936 36.9778 39.9064C36.9778 40.0284 37.0023 40.1566 37.033 40.2787C37.1494 40.7182 37.6088 40.8037 37.8967 40.6022C38.0131 40.5229 38.1295 40.4313 38.2213 40.3214C38.497 39.9979 38.7604 39.6622 39.0238 39.3265C39.422 38.8015 39.8201 38.2766 40.206 37.7394C40.5858 37.2084 40.9472 36.659 41.3087 36.1158C42.0499 35.0109 42.8156 33.9244 43.6609 32.8928C44.4205 31.9589 45.2352 31.0799 46.1601 30.3047C46.8707 29.7065 47.6303 29.1877 48.494 28.8215C48.8187 28.6872 49.1494 28.5773 49.4925 28.4918C49.5109 28.4918 49.5354 28.4857 49.566 28.4918C49.5415 28.5101 49.5108 28.5224 49.4863 28.5407C47.9856 29.2243 46.6747 30.1704 45.4986 31.3241C44.3286 32.4717 43.3424 33.7657 42.448 35.1391C41.811 36.1219 41.2351 37.1351 40.6471 38.1484C40.3286 38.6978 39.9978 39.241 39.6547 39.7782C39.324 40.297 38.9197 40.7487 38.4357 41.1272C38.3684 41.1821 38.301 41.2309 38.2275 41.2737C37.7007 41.6277 37.131 41.6582 36.5368 41.4934C36.2979 41.4263 36.0958 41.292 35.9304 41.1089C35.618 40.7792 35.4219 40.3825 35.2872 39.9552C35.1647 39.5584 35.0973 39.1556 35.0483 38.7466C34.9625 38.0446 34.9686 37.3427 34.9993 36.6407C35.0299 35.8777 35.1095 35.1147 35.2259 34.3578C35.3974 33.2591 35.6057 32.1604 35.8814 31.086C35.9365 30.8724 35.9977 30.6649 36.0529 30.4512C36.059 30.4268 36.0651 30.4024 36.0529 30.3658C36.0284 30.4024 36.0039 30.439 35.9794 30.4756C35.4771 31.2692 34.9809 32.0627 34.4786 32.8501C34.0008 33.5948 33.4679 34.2968 32.8676 34.9499C32.4878 35.3589 32.0773 35.7312 31.5995 36.0242C31.3974 36.1463 31.183 36.2562 30.9441 36.305C30.6501 36.366 30.3683 36.3355 30.1049 36.1951C29.5842 35.9082 29.1248 35.5481 28.7695 35.0659C28.451 34.6386 28.2733 34.1564 28.1998 33.6314C28.1631 33.3689 28.157 33.1004 28.1325 32.8135C28.1018 32.8562 28.0773 32.8928 28.0528 32.9295C27.6056 33.6558 27.1524 34.3761 26.7113 35.1025C25.8966 36.4454 25.0574 37.7761 24.1202 39.0396C23.6179 39.7171 23.0666 40.3459 22.4173 40.883C22.1784 41.0844 21.9272 41.2737 21.6515 41.4263C21.0022 41.7803 20.3345 41.8352 19.6362 41.585C19.2381 41.4385 18.8705 41.2309 18.552 40.9501C18.0252 40.4923 17.7495 39.9125 17.6576 39.2288C17.529 38.2278 17.6576 37.245 17.9149 36.2806C18.2825 34.9133 18.797 33.607 19.3912 32.3252C20.0528 30.9029 20.696 29.4685 21.2779 28.0096C21.6148 27.1551 21.8966 26.2822 22.0865 25.3849C22.1722 24.9637 22.2212 24.5425 22.1232 24.1214C22.0436 23.749 21.8659 23.4316 21.5719 23.163C21.529 23.2912 21.4984 23.4194 21.4555 23.5354C21.2779 23.9932 21.0635 24.4327 20.794 24.8416C20.4571 25.3605 20.0895 25.861 19.6852 26.3249C19.2687 26.8071 18.7909 27.2161 18.2763 27.5884C17.2044 28.3698 16.0466 28.9985 14.8031 29.4502C13.5106 29.9202 12.1875 30.2742 10.8398 30.5611C10.7663 30.5794 10.6867 30.5855 10.6132 30.5977C10.5581 30.6038 10.4968 30.6099 10.4355 30.6099C10.4662 30.5977 10.4907 30.5855 10.5213 30.5794C10.8215 30.4817 11.1216 30.3902 11.4156 30.2803C12.3161 29.9507 13.2288 29.6455 14.1048 29.2609C14.8399 28.9374 15.5627 28.5956 16.2794 28.2233C17.4923 27.5823 18.5459 26.7461 19.4586 25.7328C19.7955 25.3605 20.1018 24.9637 20.3407 24.5181C20.6347 23.9688 20.8185 23.3828 20.9532 22.7785C20.9716 22.7052 20.941 22.6686 20.8858 22.6198C20.4938 22.3024 20.1018 21.991 19.722 21.6614C19.3422 21.3318 19.0114 20.9534 18.7174 20.5444C18.5275 20.2758 18.3805 19.9889 18.258 19.6837C18.0007 19.0306 18.0313 18.3897 18.3008 17.7487C18.5152 17.2421 18.8583 16.8331 19.3054 16.5096C19.8629 16.1129 20.4754 15.826 21.1554 15.71C21.6209 15.6307 22.0865 15.6245 22.5459 15.7466C22.9502 15.8565 23.2381 16.0946 23.3974 16.4852C23.4954 16.7294 23.5566 16.9857 23.575 17.2543C23.6056 17.761 23.5137 18.2554 23.3974 18.7437C23.1401 19.7997 22.7174 20.7947 22.2335 21.7713C22.2151 21.8079 22.1967 21.8507 22.1722 21.8995V21.8873ZM37.4066 26.4409C36.9166 26.3554 36.451 26.3737 35.9855 26.4775C35.3484 26.6179 34.7849 26.917 34.2642 27.3015C33.0697 28.1866 32.0957 29.267 31.33 30.5367C30.7542 31.4889 30.307 32.4961 30.0926 33.5948C30.0191 33.961 29.9885 34.3273 30.0498 34.6996C30.0926 34.9316 30.1784 35.1391 30.3377 35.31C30.4234 35.4016 30.5214 35.4626 30.6501 35.4809C30.7971 35.4993 30.9257 35.4565 31.0482 35.3955C31.2381 35.3039 31.4097 35.1757 31.5567 35.0231C31.8691 34.6996 32.1876 34.3761 32.4816 34.0282C33.2412 33.137 33.9089 32.1726 34.5521 31.1959C35.5506 29.6821 36.4572 28.1195 37.3576 26.5508C37.376 26.5202 37.3883 26.4897 37.4128 26.447L37.4066 26.4409ZM21.5352 21.5394C21.5597 21.5027 21.578 21.4783 21.5964 21.4539C21.6883 21.283 21.7802 21.1182 21.8659 20.9412C22.3131 20.0317 22.6684 19.0855 22.7787 18.0662C22.8215 17.6633 22.8154 17.2604 22.7174 16.8637C22.6316 16.5218 22.4173 16.3143 22.0681 16.2472C21.8169 16.1983 21.5658 16.2166 21.3208 16.2655C20.7143 16.3814 20.1875 16.65 19.7097 17.0285C19.3544 17.3093 19.091 17.6633 18.9195 18.0784C18.7174 18.5606 18.7664 19.0245 19.0359 19.464C19.1584 19.6654 19.3238 19.8424 19.4953 20.0011C20.1079 20.5627 20.7695 21.0449 21.4678 21.4905C21.4862 21.5027 21.5045 21.5149 21.5352 21.5271V21.5394Z" fill="url(#paint2_linear_347_1526)"/>
<defs>
<linearGradient id="paint0_linear_347_1526" x1="2.60938" y1="32.8912" x2="57.392" y2="32.8912" gradientUnits="userSpaceOnUse">
<stop offset="0.0001" stop-color="#464EA3"/>
<stop offset="1" stop-color="#995BB7"/>
</linearGradient>
<linearGradient id="paint1_linear_347_1526" x1="2.60938" y1="32.8912" x2="57.392" y2="32.8912" gradientUnits="userSpaceOnUse">
<stop offset="0.0001" stop-color="#464EA3"/>
<stop offset="1" stop-color="#995BB7"/>
</linearGradient>
<linearGradient id="paint2_linear_347_1526" x1="10.4355" y1="30.0723" x2="49.566" y2="30.0723" gradientUnits="userSpaceOnUse">
<stop offset="0.0001" stop-color="#464EA3"/>
<stop offset="1" stop-color="#995BB7"/>
</linearGradient>
</defs>
</svg>
